<?xml version="1.0" standalone="no"?>
<svg viewBox="0 0 200 200" xmlns="http://www.w3.org/2000/svg">
  <path fill="#9EF0F0" d="M45.5,-77.8C59.6,-70.8,71.9,-59.7,78.8,-46.1C85.6,-32.4,87,-16.2,86.3,-0.4C85.7,15.5,83.1,31,76.1,44.4C69.1,57.8,57.8,69.2,44.4,76.9C31,84.6,15.5,88.7,-0.4,89.5C-16.4,90.2,-32.8,87.7,-46.4,80.1C-60.1,72.6,-71,59.9,-78.9,45.7C-86.9,31.5,-91.9,15.8,-91.5,0.2C-91.2,-15.4,-85.5,-30.7,-77.2,-44.3C-68.9,-57.9,-58,-69.7,-44.7,-77.2C-31.4,-84.7,-15.7,-87.8,0,-87.9C15.8,-87.9,31.5,-84.9,45.5,-77.8Z" transform="translate(100 100)" />
</svg>
